<?xml version="1.0" encoding="utf-8"?>
<!-- Generator: Adobe Illustrator 22.0.0, SVG Export Plug-In . SVG Version: 6.00 Build 0)  -->
<svg version="1.1" id="Layer_1" xmlns="http://www.w3.org/2000/svg" xmlns:xlink="http://www.w3.org/1999/xlink" x="0px" y="0px"
	 width="200px" height="200px" viewBox="0 0 200 200" style="enable-background:new 0 0 200 200;" xml:space="preserve">
<g>
	<path style="fill:#636466;" d="M35.1,28.5c0-9.3,7.4-16.8,16.4-16.8h98.4c9.1,0,16.4,7.5,16.4,16.8v100.4c0,9.3-7.4,16.8-16.4,16.8
		H51.6c-9.1,0-16.4-7.5-16.4-16.8V28.5z"/>
	<path style="fill:#CECFD1;" d="M73.3,95.2c-2.8-5.1-4.5-10.9-4.5-17.1c0-19.1,15.2-34.6,33.9-34.6c6.3,0,12.2,1.8,17.2,4.8l10.9-7
		c-7.8-6.2-17.5-9.9-28.2-9.9c-25.3,0-45.8,20.9-45.8,46.7c0,10.6,3.5,20.4,9.4,28.3L73.3,95.2z"/>
	<path style="fill:#CECFD1;" d="M132.9,62.3c2.4,4.7,3.7,10.1,3.7,15.8c0,19.1-15.2,34.6-33.9,34.6c-5.5,0-10.8-1.4-15.4-3.8
		l-11.1,7.3c7.5,5.4,16.6,8.6,26.5,8.6c25.3,0,45.8-20.9,45.8-46.7c0-10.1-3.2-19.5-8.5-27.1L132.9,62.3z"/>
	<path style="fill:#E10025;" d="M143.4,29.6c0-3.9,3.1-7,6.8-7s6.8,3.1,6.8,7c0,3.9-3.1,7-6.8,7S143.4,33.4,143.4,29.6"/>
	<polygon style="fill:#CECFD1;" points="94.3,70.5 66.5,115 67.7,116.2 111.4,87.6 	"/>
	<polygon style="fill:#2D2C2F;" points="138.1,42.4 139.2,43.5 111.4,87.7 94.3,70.5 	"/>
	<path style="fill:#CECFD1;" d="M19.3,179.3h2.8l-0.7-5.8c-0.1-0.5-0.1-1-0.2-1.5c-0.1-0.5-0.1-1.1-0.2-1.7
		c-0.1-0.6-0.1-1.1-0.1-1.5h-0.1c-0.3,2.7-0.6,4.2-0.6,4.7L19.3,179.3z M30.2,187.8h-6.8l-0.5-3.2h-4.4l-0.6,3.2h-6.8l5.9-24.9H25
		L30.2,187.8z"/>
	<polygon style="fill:#CECFD1;" points="44,187.8 32.4,187.8 32.4,162.9 39,162.9 39,181.9 44,181.9 	"/>
	<path style="fill:#2D2C2F;" d="M63.1,182.4h0.6c0.8,0,1.5-0.2,2-0.6c0.5-0.4,0.8-1,0.8-1.8c0-0.8-0.3-1.4-0.8-1.8
		c-0.5-0.4-1.2-0.6-2-0.6h-0.5V182.4z M63.1,172.6h0.4c0.8,0,1.4-0.2,1.9-0.5c0.5-0.4,0.7-0.9,0.7-1.7c0-1.4-0.8-2.1-2.4-2.1h-0.6
		V172.6z M56.5,187.8v-24.9h7.8c1,0,2,0.1,3,0.4c0.9,0.2,1.8,0.6,2.7,1.2c0.9,0.5,1.5,1.3,2,2.2c0.5,1,0.7,2.1,0.7,3.4
		c0,1.4-0.4,2.6-1.3,3.6c-0.8,0.9-1.9,1.4-3.3,1.4v0.1c1.6,0.1,2.9,0.7,3.7,1.7c0.8,1,1.3,2.3,1.3,4c0,0.8-0.1,1.7-0.4,2.4
		c-0.3,0.8-0.7,1.5-1.2,2.3c-0.6,0.7-1.4,1.3-2.4,1.7c-1.1,0.4-2.3,0.7-3.7,0.7H56.5z"/>
	<path style="fill:#2D2C2F;" d="M82.8,179.3h2.8l-0.7-5.8c-0.1-0.5-0.1-1-0.2-1.5c-0.1-0.5-0.1-1.1-0.2-1.7
		c-0.1-0.6-0.1-1.1-0.1-1.5h-0.1c-0.3,2.7-0.6,4.2-0.6,4.7L82.8,179.3z M93.7,187.8h-6.8l-0.5-3.2h-4.4l-0.6,3.2h-6.8l5.9-24.9h8.1
		L93.7,187.8z"/>
	<path style="fill:#2D2C2F;" d="M115.4,187.8H109l-1.8-10.1c-0.1-0.8-0.3-1.8-0.4-3.2c-0.2-1.3-0.2-2.1-0.3-2.3h-0.1
		c-0.3,3.6-0.5,5.5-0.5,5.5l-1.4,10.1h-6.4l-5.4-24.9h6.5l1.5,10.1c0,0.2,0.2,2,0.7,5.5h0.1c0-0.2,0.1-1,0.2-2.4
		c0.1-1.4,0.2-2.4,0.4-3.2l1.7-10.1h5.7l1.7,10.1c0.1,0.7,0.2,1.7,0.4,3c0.2,1.3,0.3,2.1,0.3,2.5h0.1c0-0.4,0.1-1.2,0.2-2.5
		c0.1-1.2,0.2-2.2,0.3-3l1.5-10.1h6.5L115.4,187.8z"/>
	<path style="fill:#2D2C2F;" d="M121.7,187.2v-7.8c0.5,0.8,1.1,1.4,1.9,2c0.8,0.5,1.5,0.8,2.3,0.8c0.5,0,0.9-0.1,1.3-0.4
		c0.4-0.3,0.6-0.7,0.6-1.2c0-0.5-0.2-1-0.5-1.4c-0.2-0.3-0.6-0.6-1.1-1c-1.6-1.2-2.6-2.3-3.3-3.2c-0.9-1.3-1.3-2.7-1.3-4.4
		c0-0.8,0.1-1.6,0.4-2.5c0.3-0.9,0.7-1.8,1.2-2.6c0.5-0.9,1.3-1.6,2.4-2.2c1-0.6,2.2-0.9,3.5-0.9c1.6,0,3.2,0.4,4.7,1.3v7.6
		c-0.4-0.7-1-1.3-1.7-1.9c-0.7-0.5-1.4-0.8-2.2-0.8c-0.4,0-0.8,0.1-1.2,0.4c-0.4,0.3-0.5,0.7-0.5,1.1c0,0.4,0.2,0.9,0.6,1.4
		c0.1,0.1,0.5,0.4,1.2,1c1.6,1.1,2.6,2.1,3.2,3c0.8,1.1,1.2,2.6,1.2,4.3c0,2.4-0.7,4.3-2.2,5.9c-1.5,1.6-3.3,2.4-5.6,2.4
		C124.9,188.3,123.3,187.9,121.7,187.2"/>
	<path style="fill:#2D2C2F;" d="M144.1,179.3h2.8l-0.7-5.8c-0.1-0.5-0.1-1-0.2-1.5c-0.1-0.5-0.1-1.1-0.2-1.7
		c-0.1-0.6-0.1-1.1-0.1-1.5h-0.1c-0.3,2.7-0.5,4.2-0.6,4.7L144.1,179.3z M155,187.8h-6.8l-0.5-3.2h-4.4l-0.6,3.2h-6.8l5.9-24.9h8.1
		L155,187.8z"/>
	<polygon style="fill:#2D2C2F;" points="168.8,187.8 157.2,187.8 157.2,162.9 163.8,162.9 163.8,181.9 168.8,181.9 	"/>
	<path style="fill:#2D2C2F;" d="M178,179.3h2.8l-0.7-5.8c-0.1-0.5-0.1-1-0.2-1.5c-0.1-0.5-0.1-1.1-0.2-1.7c-0.1-0.6-0.1-1.1-0.1-1.5
		h-0.1c-0.3,2.7-0.6,4.2-0.6,4.7L178,179.3z M188.9,187.8h-6.8l-0.5-3.2h-4.4l-0.6,3.2h-6.8l5.9-24.9h8.1L188.9,187.8z"/>
</g>
</svg>
